# xmcd
#
# Track frame offsets: 
#        150
#        34081
#        64972
#        90743
#        117241
#        146523
#        173631
#        195644
#        213025
#        240697
#
# Disc length: 3550 seconds
#
# Revision: 3
# Processed by: cddbd v1.5.2PL0 Copyright (c) Steve Scherf et al.
# Submitted via: ExactAudioCopy v1.0b3
#
DISCID=870ddc0a
DTITLE=Stanley Clarke - Stanley Clarke Standards
DYEAR=2006
DGENRE=Jazz
TTITLE0=Lover Man
TTITLE1=Mack The Knife
TTITLE2=Salt Peanuts
TTITLE3=I Mean You
TTITLE4=Now's The Time
TTITLE5=Take Five
TTITLE6=Jeru
TTITLE7=Manteca
TTITLE8=Oleo
TTITLE9=Perdido
EXTD=
EXTT0=
EXTT1=
EXTT2=
EXTT3=
EXTT4=
EXTT5=
EXTT6=
EXTT7=
EXTT8=
EXTT9=
PLAYORDER=
